<svg xmlns="http://www.w3.org/2000/svg" viewBox="0 0 1124.1 1256.4" width="200" height="200"><path d="M699.6 1113a459.43 459.43 0 0 0-38.4 143.4l424.5-90.2c20.1-44.5 33.3-92.7 38.4-143.4L699.6 1113zm386.1-217.2c20.1-44.5 33.3-92.7 38.4-143.4l-330.7 70.3V687.6l292.3-62.1c20.1-44.5 33.3-92.7 38.4-143.4l-330.7 70.3V66.1a465.36 465.36 0 0 0-132.3 111v403.4L529 608.6V0a465.36 465.36 0 0 0-132.3 111v525.7L101 698.6a467.04 467.04 0 0 0-38.6 144.3l334.3-71v170.3l-358.3 97.1C18.3 1062.8 5.1 1111 0 1161.7l375-79.7c30.5-6.3 56.8-24.4 73.8-49.2l68.8-102a66.25 66.25 0 0 0 11.3-37v-150l132.3-28.1v270.4l424.5-90.3z"/></svg>



